<svg width="74" height="60" viewBox="0 0 74 60" fill="none" xmlns="http://www.w3.org/2000/svg">
<path d="M60.0684 33.1873C58.7213 33.1829 57.6008 33.0822 56.4821 32.9483C55.9481 32.8843 55.4158 32.8085 54.8839 32.73C54.5067 32.6745 54.1496 32.5495 53.8025 32.3987C53.4107 32.2284 53.0324 32.0302 52.6361 31.8668C52.1146 31.6517 51.655 31.321 51.1807 31.0185C50.6982 30.7108 50.3339 30.2875 49.9666 29.8616C49.7206 29.5763 49.4611 29.3009 49.1903 29.0391C48.9306 28.7881 48.8248 28.4662 48.7069 28.144C48.5248 27.6467 48.443 27.1257 48.3261 26.6129C48.291 26.4587 48.2278 26.3108 48.1819 26.1588C48.154 26.0664 48.0958 26.067 48.0262 26.1009C47.9054 26.1597 47.7851 26.2197 47.6662 26.2825C46.9166 26.6791 46.1673 27.0764 45.418 27.4736C45.3882 27.4894 45.3576 27.5032 45.3286 27.5201C45.242 27.5705 45.1293 27.6003 45.0833 27.6887C45.0274 27.7962 45.1541 27.8623 45.1885 27.9521C45.4054 28.5195 45.7193 29.0328 46.0921 29.5107C46.417 29.9271 46.7057 30.3689 47.0015 30.8051C47.1746 31.0602 47.3321 31.3277 47.4613 31.6113C47.5728 31.8565 47.7336 32.0722 47.9568 32.2348C48.0039 32.269 48.061 32.3047 48.0846 32.3536C48.2263 32.6453 48.5085 32.8009 48.7244 33.02C48.88 33.1781 49.0834 33.2665 49.2791 33.363C49.4224 33.4337 49.5631 33.508 49.6974 33.5945C50.3722 34.0296 51.1172 34.3166 51.8575 34.615C52.7467 34.9734 53.6635 35.2525 54.5675 35.5683C56.043 36.0835 57.5376 36.5428 59.003 37.0869C59.8693 37.4084 60.7385 37.7231 61.5767 38.1136C62.3852 38.4902 63.1795 38.8924 63.8615 39.4778C64.2238 39.7888 64.5108 40.1551 64.6221 40.6339C64.7188 41.0496 64.8179 41.4595 64.7628 41.8974C64.681 42.5451 64.3504 43.0373 63.8668 43.4456C63.4854 43.7678 63.0431 43.9939 62.5903 44.1943C61.6761 44.5989 60.7255 44.9127 59.7966 45.2814C59.267 45.4916 58.7084 45.475 58.1537 45.4156C56.5368 45.2426 55.0019 44.7482 53.4735 44.2269C52.7182 43.9692 51.9598 43.7201 51.2149 43.4336C50.078 42.9962 48.9441 42.5515 47.8105 42.1058C46.4658 41.5772 45.1314 41.0223 43.7724 40.5301C43.2667 40.347 42.7521 40.1916 42.2337 40.047C41.2805 39.7812 40.4011 39.3408 39.5328 38.8785C39.147 38.673 38.7588 38.4749 38.3503 38.3172C38.2309 38.2711 38.108 38.2474 37.9827 38.2346C37.775 38.2133 37.6681 38.2811 37.5913 38.4713C37.5593 38.5507 37.5527 38.6333 37.5485 38.7172C37.5379 38.9279 37.5654 39.1354 37.6014 39.3416C37.6635 39.6965 37.7392 40.0509 37.8608 40.3882C37.9987 40.7708 38.266 41.0802 38.5427 41.3736C39.1401 42.0068 39.847 42.5047 40.5788 42.9679C42.2075 43.9991 43.9491 44.8153 45.6954 45.6219C46.7475 46.1078 47.8003 46.5925 48.8575 47.0669C50.0149 47.5863 51.1608 48.1291 52.2961 48.6945C53.0487 49.0691 53.7762 49.4878 54.4585 49.9798C54.6623 50.1267 54.8521 50.2919 55.0367 50.4637C55.5635 50.9539 55.5999 51.537 55.3732 52.1696C55.1856 52.6928 54.8147 53.0791 54.3935 53.4217C53.8144 53.8924 53.1475 54.2138 52.465 54.4984C51.587 54.8645 50.6731 55.1242 49.7442 55.3276C48.8409 55.5254 47.929 55.677 47.0084 55.7687C46.2978 55.8394 45.5863 55.9064 44.8706 55.8882C44.3242 55.8742 43.8103 55.7151 43.3087 55.5175C42.1368 55.0559 41.0691 54.4057 40.0356 53.6969C38.5878 52.7038 37.2191 51.6074 35.8599 50.4997C34.8065 49.6414 33.7753 48.7565 32.7424 47.8736C32.398 47.5793 32.0481 47.2965 31.7563 46.9435C31.3982 46.5102 31.0704 46.0558 30.749 45.5966C30.5378 45.2948 30.3501 44.9768 30.1403 44.6741C29.8054 44.1908 29.5172 43.6801 29.267 43.151C28.9451 42.4707 28.5147 41.8654 28.0444 41.2846C27.9112 41.1201 27.8012 40.9471 27.7212 40.75C27.5789 40.3991 27.3634 40.0878 27.1647 39.767C26.8245 39.2174 26.5643 38.6255 26.2733 38.05C26.1036 37.7146 26.1054 37.7082 25.7739 37.8822C24.5619 38.5185 23.3516 39.1579 22.141 39.7965C22.0965 39.82 22.0536 39.8467 22.0105 39.8729C21.7839 40.0106 21.7817 40.0293 21.9314 40.2604C22.0376 40.4241 22.1711 40.5646 22.3172 40.6895C22.7062 41.0217 22.9797 41.4424 23.2464 41.8678C23.3846 42.0883 23.5186 42.3099 23.7062 42.4938C24.015 42.7964 24.195 43.1917 24.4543 43.5303C24.5562 43.6634 24.6417 43.8059 24.78 43.909C24.9168 44.011 25.005 44.1515 25.0824 44.3041C25.2991 44.7309 25.57 45.1218 25.9087 45.463C26.0456 45.6009 26.1577 45.7575 26.2633 45.9186C26.8151 46.761 27.4371 47.5506 28.0671 48.3354C28.4608 48.8256 28.8647 49.307 29.2697 49.7876C29.6584 50.2491 30.0595 50.7001 30.4569 51.1542C30.8876 51.6459 31.3196 52.1365 31.7529 52.626C32.1973 53.1281 32.6472 53.6253 33.0891 54.1297C33.7021 54.8295 34.3119 55.5318 34.8701 56.2775C35.2671 56.8079 35.4964 57.4221 35.7795 58.0095C35.8666 58.1904 35.9408 58.3777 36.0165 58.5638C36.0641 58.6808 36.0859 58.8039 36.0928 58.9309C36.1097 59.2438 35.9666 59.4589 35.6928 59.597C35.3026 59.7941 34.8783 59.8569 34.4511 59.9003C34.0584 59.94 33.6644 59.9664 33.2708 59.9952C32.9366 60.0198 32.6184 59.9406 32.3097 59.8255C31.8508 59.6545 31.4257 59.419 31.0232 59.1408C30.2974 58.6391 29.6064 58.096 28.9516 57.5043C28.1858 56.8124 27.4295 56.1103 26.7205 55.3618C26.0405 54.6438 25.3716 53.9149 24.7033 53.1856C23.9271 52.3384 23.186 51.4616 22.4308 50.5967C21.874 49.9591 21.3356 49.3055 20.7915 48.6569C20.1452 47.8864 19.5022 47.1129 18.8564 46.3419C18.3668 45.7572 17.8853 45.165 17.3798 44.5943C17.1029 44.2817 16.8411 43.9518 16.5104 43.6884C16.3215 43.5379 16.1074 43.4511 15.8726 43.4047C15.6137 43.3535 15.3929 43.4227 15.1973 43.5955C14.8342 43.9163 14.6838 44.3364 14.6511 44.7997C14.6221 45.2088 14.6346 45.6179 14.7227 46.0241C14.7787 46.2833 14.8774 46.5183 15.0166 46.7397C15.5846 47.643 16.2536 48.4695 16.956 49.2712C17.5469 49.9457 18.1295 50.6275 18.7165 51.3055C19.276 51.9519 19.8379 52.5962 20.3957 53.2439C21.1619 54.1337 21.8971 55.0482 22.5679 56.0116C22.8216 56.376 23.0434 56.7616 23.2359 57.1631C23.3637 57.4298 23.4459 57.7084 23.4926 57.9999C23.5718 58.4945 23.335 58.761 22.98 58.8941C22.5285 59.0633 22.0536 59.1193 21.567 59.0785C20.1853 58.9626 18.8829 58.5501 17.6117 58.0286C16.4219 57.5405 15.2645 56.9847 14.152 56.3358C13.2734 55.8234 12.4079 55.2921 11.5974 54.6781C10.9883 54.2164 10.3985 53.7303 9.94978 53.1012C9.47071 52.4298 9.15128 51.6881 8.99045 50.8808C8.88581 50.3556 8.79418 49.8278 8.69583 49.3012C8.66803 49.1522 8.6178 49.0108 8.55114 48.8743C8.35831 48.4795 8.05114 48.2888 7.54143 48.332C7.16475 48.3638 6.82634 48.5093 6.50437 48.6977C5.90198 49.0504 5.36058 49.4921 4.77613 49.8711C4.58346 49.9961 4.37748 50.088 4.16193 50.1557C3.82606 50.2613 3.55447 50.1239 3.31575 49.8982C3.10619 49.7 2.95357 49.4566 2.80574 49.2147C2.30724 48.3988 1.96554 47.521 1.80171 46.5771C1.80022 46.569 1.79813 46.5608 1.79723 46.5524C1.72219 45.8927 1.80545 45.7291 2.35567 45.4717C2.75896 45.2831 3.16837 45.1073 3.58795 44.9581C4.02457 44.8028 4.44504 44.6139 4.85685 44.4036C5.09033 44.2843 5.30453 44.1367 5.49735 43.961C5.88464 43.6082 5.95101 43.1597 5.67268 42.7154C5.47463 42.3991 5.19601 42.1559 4.90124 41.9303C4.4141 41.5577 3.88914 41.2394 3.37958 40.9006C2.66419 40.425 2.19304 39.7792 1.8627 39.0072C1.08887 37.1993 0.472577 35.3434 0.134463 33.4029C0.0163775 32.725 -0.0577624 32.0418 0.0580812 31.3554C0.113836 31.0246 0.230576 30.708 0.353445 30.3969C0.696043 29.5296 1.1213 28.7022 1.63535 27.9241C1.95433 27.4415 2.32219 26.9934 2.76748 26.6163C2.98003 26.4363 3.21127 26.2851 3.48242 26.2048C4.00454 26.0503 4.47509 26.1989 4.799 26.6342C5.02934 26.9437 5.21903 27.2796 5.40213 27.6188C5.93995 28.6148 6.41094 29.6421 6.86744 30.677C7.58418 32.302 8.26414 33.9422 8.94366 35.5827C9.32183 36.4956 9.67385 37.4197 10.0945 38.3144C10.2662 38.6797 10.4901 39.0163 10.8191 39.2667C11.2356 39.5836 11.6725 39.5583 12.0487 39.1996C12.0973 39.1533 12.1472 39.1074 12.1891 39.0555C12.4713 38.7047 12.682 38.3125 12.7961 37.8799C12.8711 37.5955 12.8445 37.2971 12.7924 37.0069C12.6641 36.2948 12.4178 35.6195 12.1548 34.9474C11.5563 33.4176 10.8281 31.9437 10.2103 30.4226C9.76921 29.3362 9.3178 28.2534 8.94844 27.1399C8.55263 25.9466 8.20151 24.7408 8.00435 23.4964C7.84935 22.5179 7.78373 21.5324 7.84128 20.5435C7.89927 19.5469 8.0344 18.5588 8.35263 17.6074C8.53694 17.0565 8.80076 16.5465 9.22856 16.1303C9.66159 15.709 10.1747 15.5789 10.7569 15.6566C11.1575 15.71 11.5111 15.8875 11.8477 16.096C12.5507 16.5316 13.0895 17.1324 13.5891 17.783C14.0743 18.4149 14.4478 19.1046 14.7548 19.8303C15.1104 20.6708 15.436 21.5238 15.7148 22.394C15.9907 23.2554 16.265 24.1172 16.5026 24.9894C16.7953 26.0634 17.0856 27.1381 17.34 28.2226C17.5464 29.1025 17.7678 29.9793 17.9762 30.8591C18.2309 31.9342 18.4814 33.0103 18.7388 34.0849C18.807 34.3698 18.8956 34.6473 19.0591 34.8988C19.1542 35.045 19.2345 35.2076 19.2856 35.3737C19.3748 35.6636 19.5011 35.9363 19.6246 36.2111C19.7207 36.4252 19.8123 36.6401 19.8608 36.8721C19.9342 37.2241 20.0907 37.5323 20.3501 37.7897C20.5177 37.9558 20.5143 37.9677 20.7341 37.8544C21.2195 37.6045 21.7033 37.3515 22.1862 37.0968C22.9289 36.705 23.6704 36.3108 24.4121 35.9171C24.5679 35.8343 24.7235 35.7514 24.8767 35.6639C25.0356 35.5732 25.0538 35.526 24.9797 35.3593C24.8947 35.1683 24.8114 34.9745 24.7051 34.7949C24.4331 34.3351 24.2634 33.8409 24.1595 33.3198C24.1335 33.1897 24.092 33.0575 24.0301 32.9407C23.8579 32.6151 23.6782 32.2931 23.4885 31.9772C23.2888 31.6448 23.1261 31.2972 23.0237 30.9246C22.9148 30.5283 22.8143 30.131 22.5836 29.781C22.5436 29.7203 22.5228 29.6426 22.5089 29.5696C22.3349 28.6552 22.0761 27.7636 21.7972 26.8759C21.4032 25.6219 20.9869 24.3753 20.5652 23.1305C20.06 21.6387 19.5969 20.1343 19.2141 18.6068C18.9679 17.6241 18.7533 16.6328 18.6446 15.624C18.5313 14.5731 18.5002 13.5205 18.6733 12.4718C18.7527 11.9906 18.8984 11.5269 19.0896 11.079C19.541 10.0211 20.0679 9.00305 20.718 8.05091C21.3687 7.09803 22.1032 6.21585 23.0033 5.48716C23.8407 4.80923 24.7595 4.28835 25.8461 4.09795C26.6885 3.95028 27.4842 4.07771 28.2585 4.40849C28.6399 4.57149 28.9839 4.79807 29.3013 5.06126C29.5903 5.30078 29.7919 5.61102 29.9507 5.94671C30.1592 6.38764 30.3039 6.84957 30.4087 7.32639C30.569 8.05627 30.6329 8.79673 30.7012 9.53882C30.7635 10.2159 30.7583 10.8947 30.7599 11.5707C30.7614 12.213 30.7792 12.8595 30.7076 13.5017C30.6919 13.6427 30.694 13.7861 30.6916 13.9282C30.6789 14.6983 30.61 15.4647 30.5519 16.2322C30.4912 17.0331 30.4146 17.8325 30.3312 18.6312C30.2356 19.5467 30.1233 20.4604 30.0175 21.3748C29.904 22.3556 29.7879 23.3362 29.6764 24.3172C29.613 24.8741 29.555 25.4315 29.4975 25.989C29.4682 26.2726 29.4691 26.5578 29.478 26.8423C29.4844 27.0452 29.5323 27.0886 29.7407 27.0921C30.0218 27.0967 30.2898 27.027 30.5532 26.9356C31.2157 26.7058 31.7819 26.3195 32.2992 25.8589C32.9605 25.27 33.5282 24.6007 34.0115 23.8587C34.26 23.4772 34.4657 23.0753 34.6174 22.648C34.8867 21.8895 35.098 21.115 35.2714 20.3287C35.6663 18.5375 35.9659 16.7282 36.3297 14.9311C36.5825 13.6834 36.8514 12.4389 37.2108 11.2174C37.6035 9.88329 38.0484 8.56643 38.6926 7.32564C39.2171 6.31559 39.8596 5.39338 40.6531 4.57075C41.5213 3.67071 42.4945 2.90644 43.564 2.26498C44.9395 1.44012 46.402 0.815482 47.9578 0.40536C49.0716 0.111798 50.1976 -0.035727 51.3493 0.00684836C51.8237 0.0244144 52.2843 0.108523 52.7324 0.260812C52.8354 0.295795 52.9378 0.337775 53.0325 0.390771C53.2624 0.51939 53.4195 0.698326 53.4609 0.974321C53.4974 1.21786 53.5034 1.45605 53.4589 1.6978C53.3165 2.47116 53.0034 3.18392 52.6832 3.89505C52.2562 4.84362 51.7517 5.75244 51.2333 6.65203C50.5432 7.8498 49.8306 9.03506 49.111 10.2154C48.1602 11.7751 47.1879 13.3215 46.2616 14.896C45.4966 16.1964 44.7269 17.4937 44.0831 18.8594C43.7727 19.5181 43.4531 20.1763 43.3029 20.8957C43.2328 21.2316 43.1663 21.5664 43.0364 21.8863C42.9843 22.0144 43.0002 22.1514 43.0417 22.2814C43.1443 22.6022 43.203 22.9316 43.2289 23.2658C43.2509 23.5497 43.3612 23.8028 43.4921 24.0451C43.6093 24.2621 43.6873 24.4881 43.741 24.726C43.7815 24.9055 43.8178 25.0872 43.8914 25.2572C43.9914 25.4883 44.0522 25.5135 44.2724 25.3986C44.8976 25.072 45.5205 24.7408 46.1443 24.4113C46.6417 24.1484 47.1357 23.8788 47.6381 23.6256C47.8199 23.5341 47.8921 23.4129 47.8943 23.2121C47.9022 22.4582 48.0821 21.739 48.3698 21.0449C48.4532 20.8436 48.5409 20.6449 48.5604 20.4232C48.5661 20.3583 48.587 20.2886 48.6209 20.2334C48.932 19.727 49.1699 19.1734 49.5533 18.7146C49.8696 18.336 50.1465 17.9281 50.4976 17.5739C51.3415 16.7226 52.1533 15.84 52.9571 14.9502C53.1817 14.7015 53.4298 14.4738 53.6609 14.2306C54.1632 13.702 54.6826 13.1909 55.2083 12.6854C56.3123 11.6237 57.5095 10.6806 58.7971 9.85009C59.5591 9.35854 60.3279 8.87414 61.1426 8.47652C62.1534 7.98318 63.1785 7.52229 64.2887 7.27146C64.8655 7.1412 65.4437 7.03431 66.0306 7.02017C67.4511 6.98608 68.7776 7.3179 69.9817 8.09513C71.1225 8.83156 72.0257 9.79338 72.7742 10.9164C73.2255 11.5932 73.5593 12.3184 73.7913 13.0921C73.8802 13.3883 73.9387 13.6947 73.969 14.003C74.0466 14.7934 73.9836 15.5748 73.7702 16.3402C73.5895 16.9883 73.3171 17.5984 72.979 18.1819C72.4167 19.1525 71.7068 20.0094 70.956 20.8366C70.6799 21.1408 70.404 21.4453 70.14 21.7597C69.9587 21.9757 69.7408 22.1405 69.5028 22.2851C68.9326 22.6313 68.3163 22.8723 67.6847 23.0814C66.5263 23.4648 65.3429 23.7499 64.1489 23.9961C62.8653 24.2608 61.5787 24.5124 60.3002 24.8001C59.2084 25.0459 58.1512 25.4066 57.1262 25.8593C56.5327 26.1215 55.9588 26.4153 55.4425 26.8104C55.2089 26.9894 54.986 27.1812 54.8481 27.4498C54.8097 27.5247 54.7738 27.6004 54.7629 27.6849C54.7366 27.8861 54.8239 28.024 55.0185 28.0883C55.2396 28.1612 55.4666 28.152 55.6932 28.1303C56.2623 28.0758 56.8261 27.9839 57.3898 27.8906C58.1609 27.7629 58.9362 27.6662 59.7146 27.5957C60.5311 27.5217 61.3228 27.3442 62.0984 27.0828C62.7993 26.8466 63.4912 26.5886 64.1652 26.2837C64.7009 26.0414 65.2179 25.7621 65.739 25.491C66.2082 25.2469 66.672 24.9925 67.1408 24.7477C67.7882 24.4097 68.4073 24.0192 69.0695 23.709C69.4116 23.5486 69.7568 23.394 70.1059 23.2497C70.542 23.0696 70.8285 23.0881 71.2053 23.514C71.4212 23.7579 71.6197 24.0188 71.8095 24.2857C72.0562 24.6328 72.1043 25.0047 72.0133 25.4092C71.8923 25.947 71.6621 26.439 71.3745 26.9045C70.7841 27.8602 70.0282 28.6773 69.2115 29.4429C68.2747 30.3211 67.2211 31.0394 66.0922 31.6405C65.4496 31.9827 64.784 32.2875 64.0875 32.5209C63.3837 32.7567 62.671 32.9468 61.9361 33.0446C61.2447 33.1367 60.5503 33.2033 60.0699 33.1867L60.0684 33.1873Z" fill="#17BC9B"/>
</svg>
